<?xml version="1.0" encoding="UTF-8" standalone="no"?>
<!-- Created with Inkscape (http://www.inkscape.org/) -->

<svg
   width="141.0229mm"
   height="27.84956mm"
   viewBox="0 0 141.0229 27.849559"
   version="1.1"
   id="svg1"
   xml:space="preserve"
   sodipodi:docname="parcours-2.svg"
   inkscape:version="1.4.3 (0d15f75, 2025-12-25)"
   xmlns:inkscape="http://www.inkscape.org/namespaces/inkscape"
   xmlns:sodipodi="http://sodipodi.sourceforge.net/DTD/sodipodi-0.dtd"
   xmlns="http://www.w3.org/2000/svg"
   xmlns:svg="http://www.w3.org/2000/svg"><sodipodi:namedview
     id="namedview1"
     pagecolor="#505050"
     bordercolor="#eeeeee"
     borderopacity="1"
     inkscape:showpageshadow="0"
     inkscape:pageopacity="0"
     inkscape:pagecheckerboard="0"
     inkscape:deskcolor="#505050"
     inkscape:document-units="mm"
     inkscape:zoom="1.9729351"
     inkscape:cx="154.59201"
     inkscape:cy="14.952342"
     inkscape:window-width="1920"
     inkscape:window-height="1001"
     inkscape:window-x="-9"
     inkscape:window-y="-9"
     inkscape:window-maximized="1"
     inkscape:current-layer="layer1" /><defs
     id="defs1" /><g
     inkscape:label="Calque 1"
     inkscape:groupmode="layer"
     id="layer1"
     transform="translate(-34.727437,-136.32473)"><g
       id="g1"><g
         id="g4"><g
           id="g5"><path
             style="fill:#000000;stroke-width:0.912863"
             d="m 60.460369,162.82095 c -1.197359,-0.19392 -1.607695,-0.35788 -1.679679,-0.67115 -0.135803,-0.59102 0.365278,-0.76312 1.632659,-0.56078 0.606253,0.0968 1.675008,0.2388 2.375012,0.31556 1.11609,0.12238 1.262629,0.1987 1.190625,0.62015 -0.100717,0.58948 -1.158117,0.6785 -3.518617,0.29622 z m 6.809945,0.13361 c -0.267427,-0.0778 -0.502601,-0.92144 -0.264583,-0.94912 0.03638,-0.005 1.018645,-0.15111 2.182812,-0.32639 2.913044,-0.43859 3.096706,-0.42825 2.994964,0.16873 -0.06563,0.38509 -0.350916,0.55022 -1.275172,0.73809 -1.577286,0.32061 -3.228263,0.48792 -3.638021,0.36869 z m 34.461976,0.009 c -1.910139,-0.22961 -2.778123,-0.52521 -2.778123,-0.9461 0,-0.23071 0.0893,-0.46135 0.198437,-0.51255 0.109141,-0.0512 1.210466,0.0367 2.447396,0.19545 1.23693,0.15869 2.34654,0.29395 2.4658,0.30056 0.11926,0.006 0.17879,0.23525 0.13229,0.50811 -0.0896,0.52551 -0.79443,0.65544 -2.4658,0.45453 z m 5.60323,0.007 c -0.16638,-0.13865 -0.26124,-0.94829 -0.11312,-0.96551 0.0364,-0.005 1.01864,-0.15111 2.18281,-0.32639 2.90486,-0.43736 3.09682,-0.42712 2.99496,0.15995 -0.0617,0.35576 -0.37022,0.55518 -1.14288,0.73875 -1.46732,0.34863 -3.70593,0.57306 -3.92177,0.3932 z m 34.35247,-0.091 c -2.37584,-0.33086 -2.55863,-0.39971 -2.46819,-0.92974 0.0903,-0.52912 0.11043,-0.53082 2.92873,-0.24756 1.74375,0.17526 2.47708,0.52018 2.23297,1.05029 -0.18039,0.39172 -0.63779,0.41329 -2.69351,0.12701 z m 5.86131,0.0886 c -0.39922,-0.33268 -0.15057,-0.95114 0.41893,-1.04195 2.36007,-0.37638 4.22853,-0.56936 4.44305,-0.45887 0.40745,0.20984 0.29195,0.73361 -0.20972,0.95104 -0.41404,0.17945 -3.54048,0.69677 -4.21091,0.69677 -0.14573,0 -0.34433,-0.0662 -0.44135,-0.14699 z m -94.495931,-2.29874 c -2.259691,-0.80174 -2.494646,-0.97525 -1.943041,-1.4349 0.38353,-0.31961 0.611944,-0.28515 2.634494,0.39749 1.714917,0.57881 2.214555,0.84466 2.214555,1.17832 0,0.64173 -0.810976,0.60241 -2.906008,-0.14091 z m 40.344548,-0.005 c -2.301001,-0.7758 -2.458447,-0.87368 -2.224085,-1.38262 0.220866,-0.47964 1.161526,-0.33291 3.501637,0.54619 1.25755,0.47241 1.652029,0.72594 1.584462,1.0183 -0.135644,0.58694 -0.68535,0.55201 -2.862014,-0.18187 z m 40.084373,-0.10118 c -1.53485,-0.53238 -2.11667,-0.84321 -2.11667,-1.1308 0,-0.59831 0.84621,-0.56779 2.8832,0.10398 1.96314,0.64742 2.69911,1.23166 2.0116,1.59688 -0.48698,0.2587 -0.2467,0.30801 -2.77813,-0.57006 z m -58.505879,0.24436 c -0.234963,-0.51024 0.289572,-0.86479 2.093411,-1.41496 1.69006,-0.51548 2.70953,-0.59324 2.980885,-0.22737 0.273694,0.36904 -0.197968,0.63678 -2.169452,1.2315 -2.722557,0.82129 -2.71624,0.8204 -2.904844,0.41083 z m 40.293729,0.17582 c -0.46402,-0.38668 -0.0502,-0.80569 1.27956,-1.29577 1.81528,-0.669 3.43196,-0.90761 3.70006,-0.54612 0.29273,0.39469 -0.17188,0.66958 -2.29932,1.36036 -2.02299,0.65689 -2.39062,0.72293 -2.6803,0.48153 z m 40.04027,-0.28367 c 0,-0.74417 4.43198,-2.13779 5.08035,-1.59749 0.48005,0.40003 -0.13873,0.79902 -2.26758,1.46207 -2.20723,0.68749 -2.81277,0.71664 -2.81277,0.13542 z M 45.888429,157.82397 c 1.411566,0 2.237975,0.38424 1.876028,0.87227 -0.714834,0.96383 -6.825113,-0.87227 -1.876028,-0.87227 z m 37.026697,1.22321 c -0.289664,-0.62904 0.201058,-0.78223 2.49476,-0.77887 2.453437,0.004 3.135875,0.18066 2.875515,0.74605 -0.228059,0.49526 -5.143496,0.52529 -5.370275,0.0328 z m 40.216664,0 c -0.29008,-0.62994 0.20223,-0.78224 2.52851,-0.78224 1.72002,0 2.41728,0.0844 2.653,0.32106 0.59885,0.6013 0.0164,0.78134 -2.52784,0.78134 -1.94696,0 -2.53914,-0.0715 -2.65367,-0.32016 z m 39.9841,0.10005 c -0.39982,-0.5391 0.45331,-0.90343 1.96027,-0.83713 1.27663,0.0562 1.47905,0.12543 1.47905,0.50604 0,0.38621 -0.20245,0.44906 -1.6306,0.50611 -0.97414,0.0389 -1.70231,-0.0315 -1.80872,-0.17502 z"
             id="path1"
             sodipodi:nodetypes="ssssssccssscsscsccsscscsssssssccssscsscssssssssssssscsssssssssssssssscssscsssccsssc" /></g></g></g><g
       id="g3"
       transform="translate(0.52916667,3.5718918)"><g
         id="g8"><path
           d="m 167.42436,153.27946 c -3.08015,-2.4352 -5.08572,-5.93102 -5.40143,-9.41501 -0.32918,-3.63261 2.00083,-6.70459 5.54637,-7.31259 4.01197,-0.68797 7.65188,2.45329 7.65188,6.60362 0,2.11186 -0.84699,4.69947 -2.17863,6.65584 -1.10939,1.62984 -3.85107,4.18989 -4.48685,4.18959 -0.12042,-7e-5 -0.62952,-0.32472 -1.13134,-0.72145 z m 2.87827,-1.64238 c 5.56165,-5.45008 5.36806,-12.68001 -0.37895,-14.15233 -2.6124,-0.66926 -5.39927,0.72697 -6.56958,3.29139 -0.66583,1.45899 -0.60018,3.74132 0.17047,5.92572 0.36929,1.04676 1.43093,2.78821 2.36343,3.87685 0.94172,1.09941 2.46698,2.42696 2.78841,2.42696 0.12628,0 0.85808,-0.61586 1.62622,-1.36859 z m -3.4653,-4.74063 c -0.84874,-0.39636 -1.95023,-1.63834 -2.2039,-2.48501 -0.49572,-1.65458 -0.081,-3.27741 1.12607,-4.4065 2.00643,-1.87678 5.02587,-1.47051 6.42085,0.86392 0.92093,1.54115 0.92125,2.8275 0.002,4.36193 -0.78031,1.30116 -1.79007,1.87215 -3.4169,1.93216 -0.95762,0.0353 -1.41685,-0.0282 -1.92718,-0.2665 z m 3.2064,-0.84297 c 1.26991,-0.6532 1.85965,-1.60497 1.85965,-3.00121 0,-1.02914 -0.2191,-1.60128 -0.88109,-2.30076 -0.68273,-0.72139 -1.39142,-1.01703 -2.43798,-1.01703 -3.54001,0 -4.57863,4.68884 -1.40878,6.35995 0.69778,0.36785 2.11273,0.34766 2.8682,-0.0409 z"
           style="fill:#000000;stroke-width:0.626985"
           id="path1-3"
           sodipodi:nodetypes="cssssscssssssscssscccccsssscc" /></g></g><g
       id="g6"
       transform="translate(-0.52916667,0.13227501)"><g
         id="g3-9"
         transform="translate(-43.65625,-6.0854132)"><g
           id="g7"><path
             d="m 84.345197,162.80449 c -3.08015,-2.4352 -5.08572,-5.93102 -5.40143,-9.41501 -0.32918,-3.63261 2.00083,-6.70459 5.54637,-7.31259 4.01197,-0.68797 7.65188,2.45329 7.65188,6.60362 0,2.11186 -0.84699,4.69947 -2.17863,6.65584 -1.10939,1.62984 -3.85107,4.18989 -4.48685,4.18959 -0.12042,-7e-5 -0.62952,-0.32472 -1.13134,-0.72145 z m 2.87827,-1.64238 c 5.56165,-5.45008 5.36806,-12.68001 -0.37895,-14.15233 -2.6124,-0.66926 -5.39927,0.72697 -6.56958,3.29139 -0.66583,1.45899 -0.60018,3.74132 0.17047,5.92572 0.36929,1.04676 1.43093,2.78821 2.36343,3.87685 0.94172,1.09941 2.46698,2.42696 2.78841,2.42696 0.12628,0 0.85808,-0.61586 1.62622,-1.36859 z m -3.4653,-4.74063 c -0.84874,-0.39636 -1.95023,-1.63834 -2.2039,-2.48501 -0.49572,-1.65458 -0.081,-3.27741 1.12607,-4.4065 2.00643,-1.87678 5.02587,-1.47051 6.42085,0.86392 0.92093,1.54115 0.92125,2.8275 0.002,4.36193 -0.78031,1.30116 -1.79007,1.87215 -3.4169,1.93216 -0.95762,0.0353 -1.41685,-0.0282 -1.92718,-0.2665 z m 3.2064,-0.84297 c 1.26991,-0.6532 1.85965,-1.60497 1.85965,-3.00121 0,-1.02914 -0.2191,-1.60128 -0.88109,-2.30076 -0.68273,-0.72139 -1.39142,-1.01703 -2.43798,-1.01703 -3.54001,0 -4.57863,4.68884 -1.40878,6.35995 0.69778,0.36785 2.11273,0.34766 2.8682,-0.0409 z"
             style="fill:#000000;stroke-width:0.626985"
             id="path1-3-2"
             sodipodi:nodetypes="cssssscssssssscscscccccsssscc" /></g></g></g></g></svg>
